<svg id="Layer_1" data-name="Layer 1" xmlns="http://www.w3.org/2000/svg" viewBox="0 0 250 81"><defs><style>.cls-1{fill:#00bfa6;}.cls-2{fill:#f26d5e;}.cls-3{fill:#fcc67e;}.cls-4{fill:#c18053;}</style></defs><title>Horizontalni - web</title><path class="cls-1" d="M98.8,39.64l.63-.11c.88,0,1.56.7,2.06,2.11a10.11,10.11,0,0,1,.55,3.27,3.72,3.72,0,0,1-1.87,3.21,6.72,6.72,0,0,1-3.73,1.07,14.5,14.5,0,0,1-3.9-.52q0-2.28.12-5.4T92.92,37c.09-2.09.14-3.9.14-5.43a14.09,14.09,0,0,0-.41-3.38,14.9,14.9,0,0,1,3.54-.41,6.59,6.59,0,0,1,4.42,1.37,5.28,5.28,0,0,1,1.73,4.23,8.31,8.31,0,0,1-.72,3.73A5.29,5.29,0,0,1,98.8,39.64Zm-3-2a5,5,0,0,0,2.77-2.14A10,10,0,0,0,99,31.9,2.05,2.05,0,0,0,98,30a4.1,4.1,0,0,0-2.17-.49h-.22Zm.14,9.52h.38c1.06,0,1.74-.18,2-.56A4.38,4.38,0,0,0,99,44.44l.08-1a1.83,1.83,0,0,0-.9-1.62,4.86,4.86,0,0,0-1.87-.57Z"/><path class="cls-1" d="M106,48.94l-3.08,0a82.58,82.58,0,0,1,1.79-9.58,51,51,0,0,1,3.24-9.14l5.18-.49q.64,5.37,1.24,9.71c.49,3.64,1,6.86,1.48,9.64H112l-.69-7.19-4.11.35Zm2.41-12.49,2.34-.16L110.41,32l-.83.57Z"/><path class="cls-1" d="M129.24,47.54l1.12,5.16L116.77,52c0-1.44,0-2.9.09-4.36q.24-6.59.24-7.33c0-1.1-.12-3.81-.35-8.15-.11-2-.17-3.62-.17-4.89h5.85q-.9,4.39-1.4,7.33-.63,3.7-1,7.55a69.5,69.5,0,0,0-.4,7.27Z"/><path class="cls-1" d="M135.93,49.77h-4.64l-.19-21.5h4L135,37.11a6.18,6.18,0,0,0,4.25-4,14.76,14.76,0,0,0,1.1-5.93l6.65.69c-.74,1.2-1.47,2.41-2.2,3.62a30.83,30.83,0,0,1-2.39,3.35,18.3,18.3,0,0,1-3.1,2.94q1.62,2.36,2.55,3.87a29.75,29.75,0,0,1,2.12,4,18.22,18.22,0,0,1,1.31,4.42l-6.61-.66a25.75,25.75,0,0,0-.39-5.3c-.51-2.2-1.54-3.29-3.1-3.29Z"/><path class="cls-1" d="M150.1,48.94,147,49a80.52,80.52,0,0,1,1.79-9.58A51.74,51.74,0,0,1,152,30.25l5.19-.49c.42,3.58.84,6.82,1.24,9.71.49,3.64,1,6.86,1.48,9.64h-3.84l-.69-7.19-4.12.35Zm2.41-12.49,2.33-.16L154.52,32l-.83.57Z"/><path class="cls-1" d="M164.64,50.81l0,.82-3.27.33q0-1.89.27-8c.1-2,.14-3.65.14-4.86q0-1.43-.27-6.18c-.1-1.57-.14-2.82-.14-3.76l2.69-.22a20.75,20.75,0,0,1,3.1,2.8A38,38,0,0,1,169.8,35l2.47,3.4q.25-1.66.39-3.36c.09-1.12.14-2.25.14-3.39,0-.78,0-1.47-.1-2.07s-.18-1.39-.34-2.37a7.61,7.61,0,0,1,2.71.55c0,1.06,0,2.3-.08,3.73-.13,3.33-.19,5.41-.19,6.26,0,1.37.06,2.76.19,4.17s.46,4,1,7.79l-4-.24c-1.24-2.38-2.48-4.76-3.7-7.14a45.21,45.21,0,0,0-4.34-6.7c0,1.41.06,3,.18,4.9s.24,3.71.37,5.55S164.64,49.47,164.64,50.81Z"/><path class="cls-2" d="M189.48,39.64l.63-.11c.88,0,1.57.7,2.06,2.11a9.85,9.85,0,0,1,.55,3.27,3.71,3.71,0,0,1-1.86,3.21,6.76,6.76,0,0,1-3.74,1.07,14.48,14.48,0,0,1-3.89-.52q0-2.28.12-5.4t.26-6.24c.09-2.09.14-3.9.14-5.43a14.09,14.09,0,0,0-.41-3.38,14.9,14.9,0,0,1,3.54-.41,6.6,6.6,0,0,1,4.42,1.37A5.27,5.27,0,0,1,193,33.41a8.32,8.32,0,0,1-.71,3.73A5.31,5.31,0,0,1,189.48,39.64Zm-3-2a5,5,0,0,0,2.78-2.14,10,10,0,0,0,.44-3.65,2,2,0,0,0-1-1.87,4.07,4.07,0,0,0-2.16-.49h-.22Zm.14,9.52H187c1.06,0,1.74-.18,2-.56a4.49,4.49,0,0,0,.62-2.21l.08-1a1.83,1.83,0,0,0-.9-1.62,4.92,4.92,0,0,0-1.87-.57Z"/><path class="cls-2" d="M204.77,49.24l-4.66.31c.07-.5.11-.95.13-1.38s0-.92,0-1.51a17.07,17.07,0,0,0-.41-3.84c-.42-1.83-1.08-2.74-2-2.74a1.81,1.81,0,0,0-1.12.38l1,8.73h-4.42q.3-2.17.51-4.2a37.84,37.84,0,0,0,.21-3.9c0-1.13,0-2.49-.14-4.06s-.18-3.15-.26-4.73-.12-3-.12-4.11a25.44,25.44,0,0,1,3.26-.19q3.76,0,5.46,1.26,2,1.48,2,5.11a4.46,4.46,0,0,1-1.06,2.76,4.08,4.08,0,0,1-2.43,1.63,13.25,13.25,0,0,1,2.64,4.91A28.87,28.87,0,0,1,204.77,49.24Zm-7.85-19-.16,7.27h.38a4.3,4.3,0,0,0,1.9-.28,2.36,2.36,0,0,0,.93-1.61,8.25,8.25,0,0,0,.22-1.79,3.44,3.44,0,0,0-.84-2.47A4.13,4.13,0,0,0,196.92,30.2Z"/><path class="cls-2" d="M205.32,27.73,217.86,27l.09,2.8a16.41,16.41,0,0,1-3.43,1q-.5.07-6,.69l.41,4.8,4.64-.06.06,4.37-5.3-.14.27,6.4,6.89-.33.25,2.91-10.54.13Z"/><path class="cls-2" d="M220.25,49l-3.07,0A80.23,80.23,0,0,1,219,39.47a50.69,50.69,0,0,1,3.24-9.14l5.19-.5q.63,5.39,1.23,9.72c.5,3.64,1,6.85,1.49,9.63h-3.85L225.58,42l-4.12.36Zm2.42-12.49,2.33-.17-.33-4.28-.82.58Z"/><path class="cls-2" d="M231,28a12.72,12.72,0,0,1,8,2.47,8.65,8.65,0,0,1,3.54,7.27,24,24,0,0,1-.63,6,8.4,8.4,0,0,1-2.64,4.5A8.49,8.49,0,0,1,233.59,50c-.51,0-1,0-1.41,0a8,8,0,0,1-1.28-.22Zm3.18,19.07a6.32,6.32,0,0,0,4.06-2.77,9.21,9.21,0,0,0,1.1-4.88,12.39,12.39,0,0,0-.79-4.56c-.72-1.83-1.76-2.75-3.13-2.75a7.64,7.64,0,0,0-2.17.31Z"/><path class="cls-3" d="M69.08,25.36a16,16,0,0,0-7.39,1.93,16.37,16.37,0,0,0-15.46,0,16.37,16.37,0,0,0-15.46,0A16.11,16.11,0,0,0,23,25.35c-8,0-14.6,5.71-14.95,12.87A12.78,12.78,0,0,0,12.88,48.7c4.32,3.93,17.44,6.95,33.35,6.95,15.64,0,28.85-2.85,33.13-6.75a12.93,12.93,0,0,0,5-9.75C84.59,31.48,77.6,25.19,69.08,25.36ZM31.24,38.73l-.69,0A5.54,5.54,0,0,1,28,38.12c-2.75-1.47-3.9-5.41,2.74-10.73,5.62,4.5,6,8,4.26,9.82A5.27,5.27,0,0,1,31.24,38.73Zm15.46,0-.69,0a5,5,0,0,1-4.06-2c-1.35-2-.89-5.26,4.27-9.39,5.22,4.18,5.9,7.46,4.6,9.4A5.05,5.05,0,0,1,46.7,38.73Zm15.5,0-.69,0a5.19,5.19,0,0,1-3.68-1.5c-1.77-1.87-1.71-5.38,3.89-9.86,6.79,5.44,5.89,9.37,3,10.77A6,6,0,0,1,62.2,38.73Z"/><path class="cls-4" d="M46.23,56.26c-15.51,0-29.07-2.85-33.75-7.1a13.38,13.38,0,0,1-5-11C7.85,30.65,14.69,24.74,23,24.74a16.76,16.76,0,0,1,7.73,1.86,17,17,0,0,1,15.46,0,17,17,0,0,1,15.46,0,16.79,16.79,0,0,1,7.38-1.85h0A16.38,16.38,0,0,1,81,29.43a13.3,13.3,0,0,1,4,9.74,13.64,13.64,0,0,1-5.24,10.2C75.21,53.49,61.74,56.26,46.23,56.26ZM23,26c-7.7,0-14,5.4-14.35,12.29a12.25,12.25,0,0,0,4.58,10l0,0c4.39,4,17.94,6.79,32.94,6.79S74.7,52.33,79,48.45l0,0a12.41,12.41,0,0,0,4.8-9.29,12.07,12.07,0,0,0-3.64-8.85,15.13,15.13,0,0,0-11-4.32,15.68,15.68,0,0,0-6.36,1.47C67,31,67.66,33.71,67.47,35.37a4.23,4.23,0,0,1-2.53,3.34,6.71,6.71,0,0,1-2.72.63h0l-.71,0a5.77,5.77,0,0,1-4.12-1.69,4.27,4.27,0,0,1-1.19-3.34c.15-2.13,1.69-4.49,4.48-6.87a15.83,15.83,0,0,0-13.43,0c6.06,5.14,4.89,8.46,4.08,9.68a5.62,5.62,0,0,1-4.61,2.21h0l-.71,0a5.6,5.6,0,0,1-4.57-2.24c-.86-1.25-2.15-4.65,3.75-9.68a15.86,15.86,0,0,0-13.4,0c2.94,2.49,4.57,4.93,4.73,7.06a4,4,0,0,1-1.05,3.12,5.91,5.91,0,0,1-4.21,1.71h0l-.71,0a6.15,6.15,0,0,1-2.81-.7,4.53,4.53,0,0,1-2.49-3.57c-.15-1.64.52-4.28,4.48-7.65A15.69,15.69,0,0,0,23,26Zm7.72,2.22c-3,2.45-4.48,4.86-4.3,6.8a3.32,3.32,0,0,0,1.85,2.6,4.92,4.92,0,0,0,2.24.56l.68,0a4.69,4.69,0,0,0,3.34-1.32,2.79,2.79,0,0,0,.74-2.19C35.21,33.3,34.32,31.13,30.76,28.18Zm15.46,0c-3.77,3.13-5.18,6.2-3.77,8.25A4.4,4.4,0,0,0,46,38.14l.68,0a4.41,4.41,0,0,0,3.62-1.67C51.63,34.47,50.1,31.4,46.22,28.18Zm15.5,0c-3.38,2.8-4.21,4.93-4.3,6.23a3.09,3.09,0,0,0,.85,2.42,4.57,4.57,0,0,0,3.24,1.31l.68,0a5.52,5.52,0,0,0,2.22-.51,3,3,0,0,0,1.85-2.38C66.39,34.09,66,31.69,61.72,28.18Z"/></svg>