<svg id="Layer_1" data-name="Layer 1" xmlns="http://www.w3.org/2000/svg" viewBox="0 0 1573.09 512"><defs><style>.cls-1{fill:#fcc67e;}.cls-2,.cls-3{fill:none;stroke:#c18053;stroke-miterlimit:10;stroke-width:10px;}.cls-2{stroke-linecap:round;}.cls-4{fill:#00bfa6;}.cls-5{fill:#f26d5e;}</style></defs><title>Novi logo v2 - SVG</title><path class="cls-1" d="M549,254.75a97.64,97.64,0,0,1-97.65,97.65H161.94a97.66,97.66,0,1,1,71.84-163.8,97.66,97.66,0,0,1,145.18.64A97.65,97.65,0,0,1,549,254.75Z"/><path class="cls-2" d="M259.59,254.75a97.3,97.3,0,0,0-25.81-66.14"/><path class="cls-2" d="M403.74,254.24a97.31,97.31,0,0,0-24.78-65"/><path class="cls-3" d="M549,254.75a97.64,97.64,0,0,1-97.65,97.65H161.94a97.66,97.66,0,1,1,71.84-163.8,97.66,97.66,0,0,1,145.18.64A97.65,97.65,0,0,1,549,254.75Z"/><path class="cls-4" d="M652.75,257l3.75-.66q7.82,0,12.22,12.55a59.23,59.23,0,0,1,3.26,19.4q0,11.75-11.08,19.07a39.77,39.77,0,0,1-22.17,6.36,86.57,86.57,0,0,1-23.15-3.1q0-13.53.74-32t1.54-37.08q.82-18.58.82-32.27a82.34,82.34,0,0,0-2.45-20,90.53,90.53,0,0,1,21-2.45q16.62,0,26.24,8.15,10.28,8.81,10.27,25.1,0,13.7-4.23,22.17Q664.48,252.1,652.75,257Zm-17.93-11.58q12.87-5.21,16.46-12.71,2.61-5.53,2.61-21.68,0-7.5-5.71-11.08Q643.45,197,635.3,197H634Zm.81,56.56h2.28q9.45,0,12.15-3.34t3.66-13.12l.49-5.87a10.77,10.77,0,0,0-5.38-9.61q-3.9-2.44-11.08-3.43Z"/><path class="cls-4" d="M695.45,312.24l-18.26.17a484.74,484.74,0,0,1,10.6-56.89A304.47,304.47,0,0,1,707,201.24l30.81-2.93q3.75,31.94,7.34,57.7,4.4,32.43,8.8,57.21H731.15l-4.08-42.71-24.45,2.12Zm14.34-74.16,13.86-1-2-25.43-4.89,3.42Z"/><path class="cls-4" d="M833.51,303.93l6.68,30.64-80.68-3.91q0-12.87.49-25.92,1.46-39.12,1.46-43.52,0-9.78-2.12-48.41-1-17.76-1-29h34.71q-5.37,26.08-8.31,43.52-3.75,22-6.11,44.82a419.16,419.16,0,0,0-2.36,43.2Z"/><path class="cls-4" d="M873.28,317.13H845.73L844.59,189.5h23.47L867.74,242q16.78-3.92,25.26-23.47,6.53-15.17,6.52-35.21L939,187.38l-13,21.52a186.53,186.53,0,0,1-14.18,19.89,107.15,107.15,0,0,1-18.42,17.44q9.61,14,15.16,23A176.58,176.58,0,0,1,921,292.84a111.21,111.21,0,0,1,7.82,26.25l-39.28-3.91q0-21.53-2.28-31.46-4.57-19.56-18.42-19.56Z"/><path class="cls-4" d="M957.39,312.24l-18.26.17a484.74,484.74,0,0,1,10.6-56.89A303.69,303.69,0,0,1,969,201.24l30.81-2.93q3.74,31.94,7.33,57.7,4.41,32.43,8.8,57.21H993.08L989,270.51l-24.45,2.12Zm14.34-74.16,13.86-1-2-25.43-4.89,3.42Z"/><path class="cls-4" d="M1043.77,323.33l-.16,4.89-19.4,1.95q0-11.25,1.63-47.59.83-18.1.82-28.85,0-8.47-1.63-36.68-.83-14-.82-22.33l16-1.3A121.83,121.83,0,0,1,1058.61,210a221.31,221.31,0,0,1,15.81,19.24l14.67,20.21q1.47-9.94,2.28-20t.82-20.13a119.52,119.52,0,0,0-.57-12.31c-.39-3.53-1.06-8.23-2-14.1a46,46,0,0,1,16.13,3.26q0,9.47-.48,22.17-1.15,29.67-1.15,37.17,0,12.22,1.15,24.77t5.86,46.29l-24-1.46q-11.09-21.19-22-42.38Q1051.6,248,1039.37,233q0,12.55,1.06,29.1t2.2,32.93Q1043.77,311.43,1043.77,323.33Z"/><path class="cls-5" d="M1191.29,257l3.75-.66q7.82,0,12.22,12.55a59,59,0,0,1,3.26,19.4q0,11.75-11.08,19.07a39.77,39.77,0,0,1-22.17,6.36,86.5,86.5,0,0,1-23.14-3.1q0-13.53.73-32t1.55-37.08q.81-18.58.81-32.27a82.33,82.33,0,0,0-2.44-20,90.39,90.39,0,0,1,21-2.45q16.64,0,26.25,8.15,10.26,8.81,10.27,25.1,0,13.7-4.24,22.17Q1203,252.1,1191.29,257Zm-17.93-11.58q12.87-5.21,16.46-12.71,2.61-5.53,2.61-21.68,0-7.5-5.71-11.08Q1182,197,1173.85,197h-1.31Zm.81,56.56h2.29q9.45,0,12.14-3.34t3.67-13.12l.49-5.87a10.79,10.79,0,0,0-5.38-9.61q-3.92-2.44-11.09-3.43Z"/><path class="cls-5" d="M1282.08,314l-27.71,1.79a81.23,81.23,0,0,0,.81-8.15q.16-3.75.17-9a100.05,100.05,0,0,0-2.45-22.82q-3.75-16.29-11.73-16.3a11,11,0,0,0-6.69,2.29l6,51.83h-26.24q1.79-12.87,3-24.94a231.27,231.27,0,0,0,1.22-23.15q0-10.1-.82-24.12t-1.55-28.12q-.72-14.1-.73-24.37a156.1,156.1,0,0,1,19.4-1.14q22.32,0,32.44,7.5,11.89,8.81,11.89,30.32,0,8.31-6.27,16.38t-14.43,9.7q8.47,8.47,15.65,29.18A167.64,167.64,0,0,1,1282.08,314Zm-46.62-113.13-1,43.2h2.28c5.55,0,9.29-.54,11.25-1.63q3.75-2.11,5.54-9.62a46.17,46.17,0,0,0,1.31-10.59q0-9.45-5-14.67T1235.46,200.91Z"/><path class="cls-5" d="M1285.34,186.24l74.49-4.23.49,16.62a96.18,96.18,0,0,1-20.38,5.87q-2.93.5-35.53,4.07l2.44,28.53,27.55-.33.33,25.92-31.46-.81,1.63,38,40.91-2,1.47,17.28-62.59.81Z"/><path class="cls-5" d="M1374,312.7l-18.26.16a484.94,484.94,0,0,1,10.6-56.88,303.41,303.41,0,0,1,19.23-54.28l30.81-2.94q3.75,32,7.33,57.71,4.41,32.43,8.8,57.21h-22.81L1405.63,271l-24.45,2.12Zm14.34-74.16,13.86-1-2-25.43-4.89,3.42Z"/><path class="cls-5" d="M1438.06,188q28,0,47.27,14.67,21,16,21,43.19,0,21.53-3.75,35.7Q1498.05,299,1487,308.33q-12.37,10.44-33.74,10.43-4.56,0-8.39-.32a45.54,45.54,0,0,1-7.58-1.31ZM1457,301.32q16.79-4.4,24.13-16.46,6.51-10.59,6.52-29a73.64,73.64,0,0,0-4.73-27.05q-6.36-16.31-18.58-16.3a47.05,47.05,0,0,0-12.88,1.79Z"/></svg>