<svg id="Layer_1" data-name="Layer 1" xmlns="http://www.w3.org/2000/svg" viewBox="0 0 1805.94 512"><defs><style>.cls-1{fill:#fcc67e;}.cls-2,.cls-3{fill:none;stroke:#c18053;stroke-miterlimit:10;stroke-width:10px;}.cls-2{stroke-linecap:round;}.cls-4{fill:#00bfa6;}.cls-5{fill:#f26d5e;}</style></defs><title>Novi logo v3 - SVG-01</title><path class="cls-1" d="M569.44,256.25a97.64,97.64,0,0,1-97.65,97.65H182.34a97.65,97.65,0,1,1,71.85-163.79,97.67,97.67,0,0,1,145.18.63,97.65,97.65,0,0,1,170.07,65.51Z"/><path class="cls-2" d="M280,256.25a97.29,97.29,0,0,0-25.81-66.14"/><path class="cls-2" d="M424.14,255.74a97.27,97.27,0,0,0-24.77-65"/><path class="cls-3" d="M569.44,256.25a97.64,97.64,0,0,1-97.65,97.65H182.34a97.65,97.65,0,1,1,71.85-163.79,97.67,97.67,0,0,1,145.18.63,97.65,97.65,0,0,1,170.07,65.51Z"/><path class="cls-4" d="M681.38,250.57l4.55-.79q9.51,0,14.85,15.25a71.76,71.76,0,0,1,4,23.56q0,14.25-13.46,23.16a48.32,48.32,0,0,1-26.93,7.73,105.36,105.36,0,0,1-28.12-3.77q0-16.43.89-38.9T639,231.76q1-22.57,1-39.2a100.06,100.06,0,0,0-3-24.36,109.94,109.94,0,0,1,25.55-3q20.19,0,31.87,9.9,12.48,10.69,12.48,30.5,0,16.62-5.15,26.92Q695.64,244.64,681.38,250.57ZM659.6,236.51q15.63-6.33,20-15.44,3.17-6.73,3.17-26.33,0-9.11-6.93-13.47-5.75-3.56-15.64-3.56h-1.58Zm1,68.71h2.77q11.48,0,14.75-4.06t4.45-15.94l.6-7.13a13.11,13.11,0,0,0-6.54-11.68q-4.74-3-13.46-4.16Z"/><path class="cls-4" d="M733.25,317.69l-22.18.2a589.09,589.09,0,0,1,12.87-69.1,368.37,368.37,0,0,1,23.37-65.93l37.42-3.57q4.54,38.82,8.91,70.09,5.34,39.4,10.69,69.5H776.61l-5-51.87L742,269.58Zm17.42-90.09,16.83-1.18-2.37-30.89-5.94,4.16Z"/><path class="cls-4" d="M901,307.6l8.12,37.22-98-4.75q0-15.65.6-31.48,1.77-47.52,1.78-52.87,0-11.88-2.58-58.81-1.18-21.57-1.19-35.24h42.18q-6.54,31.68-10.1,52.87-4.56,26.73-7.42,54.45a508.71,508.71,0,0,0-2.87,52.47Z"/><path class="cls-4" d="M949.26,323.63H915.8l-1.38-155h28.51l-.4,63.76q20.4-4.76,30.69-28.52,7.92-18.4,7.92-42.76l47.92,4.95-15.84,26.13A225.61,225.61,0,0,1,996,216.32a130.38,130.38,0,0,1-22.37,21.18q11.67,17,18.41,27.92a214.28,214.28,0,0,1,15.25,28.71,135,135,0,0,1,9.5,31.88l-47.72-4.75q0-26.14-2.77-38.22-5.55-23.76-22.37-23.76Z"/><path class="cls-4" d="M1051.43,317.69l-22.18.2a586.94,586.94,0,0,1,12.88-69.1,367.58,367.58,0,0,1,23.36-65.93l37.42-3.57q4.56,38.82,8.91,70.09,5.34,39.4,10.69,69.5h-27.72l-5-51.87-29.7,2.57Zm17.42-90.09,16.83-1.18-2.37-30.89-5.94,4.16Z"/><path class="cls-4" d="M1156.37,331.16l-.2,5.94-23.56,2.37q0-13.65,2-57.81,1-22,1-35.05,0-10.29-2-44.55-1-17-1-27.12l19.4-1.59a148.68,148.68,0,0,1,22.38,20.2,266.94,266.94,0,0,1,19.2,23.36l17.82,24.55q1.78-12.08,2.77-24.25t1-24.45a142,142,0,0,0-.69-14.95q-.69-6.44-2.47-17.13a55.74,55.74,0,0,1,19.6,4q0,11.49-.6,26.93-1.38,36-1.38,45.14,0,14.85,1.38,30.1t7.13,56.23l-29.1-1.78q-13.47-25.74-26.73-51.48-16.44-30.09-31.29-48.31,0,15.24,1.29,35.34t2.67,40Q1156.36,316.71,1156.37,331.16Z"/><path class="cls-5" d="M1335.56,250.57l4.55-.79q9.51,0,14.85,15.25a71.76,71.76,0,0,1,4,23.56q0,14.25-13.46,23.16a48.32,48.32,0,0,1-26.93,7.73,105.36,105.36,0,0,1-28.12-3.77q0-16.43.89-38.9t1.89-45.05q1-22.57,1-39.2a100,100,0,0,0-3-24.36,109.85,109.85,0,0,1,25.54-3q20.19,0,31.88,9.9,12.46,10.69,12.47,30.5,0,16.62-5.15,26.92Q1349.81,244.64,1335.56,250.57Zm-21.78-14.06q15.63-6.33,20-15.44,3.15-6.73,3.16-26.33,0-9.11-6.93-13.47-5.74-3.56-15.64-3.56h-1.58Zm1,68.71h2.77q11.48,0,14.75-4.06t4.46-15.94l.59-7.13a13.11,13.11,0,0,0-6.54-11.68q-4.74-3-13.46-4.16Z"/><path class="cls-5" d="M1445.84,319.87l-33.66,2.18a95.19,95.19,0,0,0,1-9.9q.19-4.54.2-10.89a121.47,121.47,0,0,0-3-27.72q-4.56-19.8-14.26-19.8a13.48,13.48,0,0,0-8.12,2.77l7.33,63h-31.88q2.17-15.64,3.67-30.3a278.91,278.91,0,0,0,1.48-28.11q0-12.28-1-29.31t-1.88-34.15q-.88-17.13-.89-29.6a185.9,185.9,0,0,1,23.56-1.39q27.12,0,39.4,9.11,14.46,10.7,14.46,36.83,0,10.09-7.63,19.9t-17.52,11.78q10.29,10.29,19,35.44A203.14,203.14,0,0,1,1445.84,319.87Zm-56.63-137.41L1388,234.93h2.78q10.1,0,13.66-2,4.55-2.56,6.73-11.68a56,56,0,0,0,1.58-12.87q0-11.49-6-17.82T1389.21,182.46Z"/><path class="cls-5" d="M1449.8,164.64l90.49-5.15.59,20.2a117.13,117.13,0,0,1-24.75,7.13q-3.57.59-43.16,5l3,34.65,33.46-.4.39,31.48-38.21-1,2,46.14,49.7-2.38,1.78,21-76,1Z"/><path class="cls-5" d="M1557.51,318.15l-22.18.2a589.09,589.09,0,0,1,12.87-69.1,368.37,368.37,0,0,1,23.37-65.93l37.42-3.57q4.56,38.81,8.91,70.09,5.34,39.41,10.69,69.5h-27.72l-4.95-51.88-29.7,2.58Zm17.42-90.09,16.83-1.18L1589.39,196l-5.94,4.16Z"/><path class="cls-5" d="M1635.32,166.82q34,0,57.42,17.82,25.54,19.41,25.54,52.47,0,26.13-4.55,43.36-5.55,21.19-19,32.47-15,12.68-41,12.67-5.55,0-10.2-.39a54.61,54.61,0,0,1-9.21-1.59Zm23,137.61q20.39-5.35,29.3-20,7.92-12.87,7.92-35.24a89.4,89.4,0,0,0-5.74-32.87q-7.73-19.8-22.57-19.8a57.44,57.44,0,0,0-15.64,2.18Z"/></svg>