<svg id="Layer_1" data-name="Layer 1" xmlns="http://www.w3.org/2000/svg" viewBox="0 0 2299.26 646.47"><defs><style>.cls-1{fill:#c18053;}.cls-2{fill:#00bfa6;}.cls-3{fill:#f26d5e;}</style></defs><title>Novi logo SVG</title><path class="cls-1" d="M410.61,314.4A128.76,128.76,0,0,0,379,237.91l-5.43-6.25,5.44-6.25a149,149,0,0,1,261,87.72l-19,1.27A130,130,0,0,0,398.78,232a147.42,147.42,0,0,1,30.82,81.09Z"/><path class="cls-1" d="M701.83,472.24h-.73v-19h.73c71.65,0,129.94-58.31,129.94-130s-58.29-130-129.94-130a130.08,130.08,0,0,0-98.06,44.62l-14.35-12.51a149.12,149.12,0,0,1,112.41-51.15c82.14,0,149,66.85,149,149S784,472.24,701.83,472.24Z"/><path class="cls-1" d="M621,314.4a128.79,128.79,0,0,0-31.63-76.53l14.36-12.49A147.67,147.67,0,0,1,640,313.13Z"/><path class="cls-1" d="M701.1,472.24H281c-82.25,0-149.09-66.84-149.09-149s66.84-149,149-149a149.19,149.19,0,0,1,112.41,51.19,147.69,147.69,0,0,1,36.26,87.72l-19,1.27A128.76,128.76,0,0,0,379,237.91a130.1,130.1,0,0,0-98.05-44.65c-71.67,0-130,58.3-130,130a130.13,130.13,0,0,0,130,130H701.1Z"/><path class="cls-2" d="M991,317.05l5.16-.9q10.74,0,16.8,17.25a81.39,81.39,0,0,1,4.48,26.65q0,16.13-15.24,26.21A54.68,54.68,0,0,1,971.7,395a119.2,119.2,0,0,1-31.81-4.25q0-18.58,1-44t2.13-51q1.13-25.54,1.12-44.35a113.14,113.14,0,0,0-3.36-27.55,124.35,124.35,0,0,1,28.9-3.36q22.84,0,36.06,11.2,14.12,12.09,14.11,34.49,0,18.81-5.82,30.46Q1007.1,310.32,991,317.05Zm-24.63-15.91Q984,294,989,283.67q3.59-7.6,3.58-29.79,0-10.31-7.84-15.23-6.5-4-17.69-4h-1.79Zm1.12,77.73h3.13q13,0,16.69-4.6t5-18l.67-8.06A14.82,14.82,0,0,0,985.59,335q-5.37-3.36-15.23-4.71Z"/><path class="cls-2" d="M1049.65,393l-25.09.22A666.63,666.63,0,0,1,1039.12,315a417.92,417.92,0,0,1,26.43-74.59l42.34-4Q1113,280.32,1118,315.7q6.06,44.58,12.1,78.62H1098.7l-5.6-58.68-33.6,2.91Zm19.71-101.92,19-1.34-2.69-34.94-6.72,4.7Z"/><path class="cls-2" d="M1239.36,381.55l9.19,42.11-110.88-5.37q0-17.7.67-35.62,2-53.75,2-59.8,0-13.44-2.91-66.53-1.35-24.4-1.35-39.87h47.71q-7.38,35.85-11.42,59.81-5.16,30.24-8.4,61.6a576,576,0,0,0-3.25,59.35Z"/><path class="cls-2" d="M1294,399.7h-37.86l-1.57-175.39h32.26l-.45,72.13q23.07-5.38,34.72-32.26,9-20.82,9-48.38l54.2,5.6L1366.36,251a254.76,254.76,0,0,1-19.48,27.33,147.5,147.5,0,0,1-25.31,24q13.22,19.28,20.83,31.59a243.54,243.54,0,0,1,17.25,32.47,153.28,153.28,0,0,1,10.75,36.07l-54-5.38q0-29.56-3.13-43.23Q1307,326.9,1288,326.9Z"/><path class="cls-2" d="M1409.59,393l-25.08.22A664.57,664.57,0,0,1,1399.07,315a417.14,417.14,0,0,1,26.43-74.59l42.33-4q5.14,43.91,10.08,79.29,6,44.58,12.1,78.62h-31.36l-5.6-58.68-33.6,2.91Zm19.71-101.92,19-1.34-2.68-34.94-6.72,4.7Z"/><path class="cls-2" d="M1528.31,408.21l-.23,6.72-26.65,2.69q0-15.47,2.24-65.41,1.11-24.85,1.12-39.64,0-11.65-2.24-50.4-1.12-19.26-1.12-30.69l22-1.79a167.69,167.69,0,0,1,25.31,22.85A304,304,0,0,1,1570.42,279q10.08,13.89,20.15,27.77,2-13.65,3.14-27.44t1.12-27.66a160.76,160.76,0,0,0-.78-16.91q-.79-7.28-2.8-19.38a63.23,63.23,0,0,1,22.17,4.48q0,13-.67,30.47-1.57,40.77-1.57,51.07,0,16.8,1.57,34t8.06,63.62l-32.92-2q-15.24-29.11-30.24-58.24-18.6-34-35.39-54.65,0,17.25,1.45,40t3,45.25Q1528.3,391.85,1528.31,408.21Z"/><path class="cls-3" d="M1731,317.05l5.15-.9q10.74,0,16.8,17.25a81.39,81.39,0,0,1,4.48,26.65q0,16.13-15.24,26.21a54.66,54.66,0,0,1-30.46,8.73,119.08,119.08,0,0,1-31.8-4.25q0-18.58,1-44t2.13-51q1.13-25.54,1.12-44.35a113.14,113.14,0,0,0-3.36-27.55,124.35,124.35,0,0,1,28.9-3.36q22.85,0,36.06,11.2,14.12,12.09,14.11,34.49,0,18.81-5.82,30.46Q1747.15,310.32,1731,317.05Zm-24.64-15.91q17.68-7.15,22.62-17.47,3.59-7.6,3.58-29.79,0-10.31-7.84-15.23-6.49-4-17.69-4h-1.79Zm1.12,77.73h3.13q13,0,16.69-4.6t5-18l.67-8.06a14.82,14.82,0,0,0-7.39-13.21q-5.37-3.36-15.23-4.71Z"/><path class="cls-3" d="M1855.77,395.44l-38.07,2.47a111.84,111.84,0,0,0,1.12-11.2q.21-5.16.22-12.32a137.4,137.4,0,0,0-3.36-31.36q-5.16-22.39-16.13-22.4a15.17,15.17,0,0,0-9.18,3.14l8.29,71.22H1762.6q2.46-17.69,4.14-34.27a315.51,315.51,0,0,0,1.68-31.8q0-13.89-1.12-33.15t-2.13-38.64q-1-19.38-1-33.49a212.66,212.66,0,0,1,26.66-1.57q30.67,0,44.57,10.31,16.35,12.09,16.35,41.66,0,11.43-8.62,22.51t-19.82,13.33q11.64,11.64,21.5,40.09A230.3,230.3,0,0,1,1855.77,395.44ZM1791.71,240l-1.34,59.36h3.14q11.41,0,15.45-2.24,5.14-2.91,7.62-13.21a63.85,63.85,0,0,0,1.79-14.56q0-13-6.83-20.16T1791.71,240Z"/><path class="cls-3" d="M1860.25,219.83,1962.62,214l.67,22.85a132.62,132.62,0,0,1-28,8.06q-4,.68-48.83,5.6l3.36,39.2,37.86-.45.44,35.62-43.23-1.12,2.24,52.18,56.22-2.68,2,23.74-86,1.12Z"/><path class="cls-3" d="M1982.1,393.59l-25.08.23a664.18,664.18,0,0,1,14.56-78.17A416.86,416.86,0,0,1,1998,241.06l42.33-4q5.15,43.91,10.08,79.3,6,44.57,12.1,78.62h-31.36l-5.6-58.69-33.6,2.91Zm19.71-101.91,19-1.35-2.68-34.94-6.72,4.71Z"/><path class="cls-3" d="M2070.13,222.3q38.52,0,65,20.16Q2164,264.4,2164,301.81q0,29.58-5.15,49.06-6.27,24-21.51,36.73-17,14.34-46.36,14.34-6.27,0-11.54-.45A62.61,62.61,0,0,1,2069,399.7Zm26,155.67q23.07-6,33.15-22.62,9-14.57,9-39.87,0-20.61-6.49-37.18-8.74-22.4-25.54-22.4a64.94,64.94,0,0,0-17.69,2.46Z"/></svg>