<?xml version="1.0" encoding="utf-8"?>
<!-- Generator: Adobe Illustrator 16.0.0, SVG Export Plug-In . SVG Version: 6.00 Build 0)  -->
<!DOCTYPE svg PUBLIC "-//W3C//DTD SVG 1.1//EN" "http://www.w3.org/Graphics/SVG/1.1/DTD/svg11.dtd">
<svg version="1.1" id="Capa_1" xmlns="http://www.w3.org/2000/svg" xmlns:xlink="http://www.w3.org/1999/xlink" x="0px" y="0px"
	 width="425.201px" height="283.46px" viewBox="0 0 425.201 283.46" enable-background="new 0 0 425.201 283.46"
	 xml:space="preserve">
<g>
	<path fill="#F26D5E" d="M331.798,6.476H93.431c-12.479,0-22.562,10.073-22.562,22.533V254.46c0,12.422,10.083,22.523,22.562,22.523
		h238.366c12.421,0,22.532-10.092,22.532-22.523V29.009C354.321,16.549,344.21,6.476,331.798,6.476z M261.406,86.79
		c-5.861-3.427-10.51-6.135-16.351-6.135c-5.719,0-10.604,1.43-13.104,3.834c-2.499,2.386-3.739,7.006-3.739,13.832v10.102h30.57
		l-6.618,28.1h-23.952v93.369h-38.401v-93.369h-17.922v-28.1h17.941V97.696c0-11.295,1.354-18.055,4.023-23.631
		c2.66-5.558,7.82-11.749,14.997-15.252c7.167-3.493,17.771-5.254,28.743-5.254c11.248,0,20.033,3.749,30.808,6.77L261.406,86.79z"
		/>
</g>
</svg>
