<?xml version="1.0" encoding="utf-8"?>
<!-- Generator: Adobe Illustrator 16.0.0, SVG Export Plug-In . SVG Version: 6.00 Build 0)  -->
<!DOCTYPE svg PUBLIC "-//W3C//DTD SVG 1.1//EN" "http://www.w3.org/Graphics/SVG/1.1/DTD/svg11.dtd">
<svg version="1.1" id="Layer_1" xmlns="http://www.w3.org/2000/svg" xmlns:xlink="http://www.w3.org/1999/xlink" x="0px" y="0px"
	 width="425.201px" height="283.46px" viewBox="0 0 425.201 283.46" enable-background="new 0 0 425.201 283.46"
	 xml:space="preserve">
<g>
	<path fill="#F26D5E" d="M269.862,43.348c-26.415-0.217-52.884-1.25-79.354-0.598c-30.655,0.761-54.569,2.608-72.669,27.122
		c-4.729,11.685-7.12,25.328-8.262,39.568c-0.217,3.751-0.436,7.61-0.707,11.578c-0.978,24.186,0.652,49.134,0.109,68.917
		c2.555,12.991,7.555,24.677,16.904,33.59c30.98,29.513,94.028,20.327,135.336,18.696c19.839-7.229,36.36-13.207,45.22-35.871
		c7.012-17.828,5.87-40.548,6.36-59.679C313.723,107.32,315.464,53.023,269.862,43.348z"/>
	<path fill="#F26D5E" d="M257.742,57.37c52.775,6.794,37.286,83.268,35.818,120.335c-0.816,20.382-4.457,36.144-25.491,43.209
		c-27.665,9.295-68.429,6.196-96.638,2.065c-18.86-2.717-33.644-8.37-38.861-27.937c-8.262-30.927-5.925-72.778-2.338-104.302
		c0.109-0.598,0.271-1.033,0.544-1.414C131.264,42.153,230.294,53.838,257.742,57.37z"/>
	<path fill="#FFFFFF" d="M279.645,86.123c0.109-12.991-16.088-17.121-24.784-9.131c-2.338,2.173-3.425,5.489-3.588,9.076
		c0.869,4.62,3.642,9.186,7.229,11.794C266.927,103.787,279.537,95.906,279.645,86.123z"/>
	<path fill="#FFFFFF" d="M255.567,111.396c-18.588-28.154-60.548-30.926-83.104-5.979c-15.382,17.012-16.469,45.33-4.892,65.439
		c0.652,0.218,1.25,0.598,1.794,1.25c18.806,20.98,51.199,28.59,74.463,9.566C264.591,164.662,270.677,134.278,255.567,111.396z"/>
	<path fill="#F26D5E" d="M181.486,149.987c6.577,18.479,29.948,33.155,48.591,21.741c37.665-23.045-6.577-85.658-37.612-57.885
		C181.486,120.311,177.192,137.865,181.486,149.987z"/>
</g>
</svg>
